<svg xmlns="http://www.w3.org/2000/svg" viewBox="0 90 1440 280">
    <path
        fill="#0000ff"
        d="M0,192L60,170.7C120,149,240,107,360,90.7C480,75,600,85,720,112C840,139,960,181,1080,192C1200,203,1320,181,1380,170.7L1440,160L1440,320L1380,320C1320,320,1200,320,1080,320C960,320,840,320,720,320C600,320,480,320,360,320C240,320,120,320,60,320L0,320Z"
    ></path>
    <text x="0" y="360" fill="black" font-size="2em">12am</text>
    <text x="360" y="360" fill="black" font-size="2em">6am</text>
    <text x="720" y="360" fill="black" font-size="2em">12pm</text>
    <text x="1080" y="360" fill="black" font-size="2em">18pm</text>
    <text x="0" y="120" fill="black" font-size="2em">50%</text>
</svg>